<svg xmlns="http://www.w3.org/2000/svg" xmlns:xlink="http://www.w3.org/1999/xlink" width="500" zoomAndPan="magnify" viewBox="0 0 375 374.999991" height="500" preserveAspectRatio="xMidYMid meet" version="1.2"><g id="2b2d56fbda"><rect x="0" width="375" y="0" height="374.999991" style="fill:#ffffff;fill-opacity:1;stroke:none;"/><rect x="0" width="375" y="0" height="374.999991" style="fill:#006dd0;fill-opacity:1;stroke:none;"/><path style=" stroke:none;fill-rule:nonzero;fill:#41b45a;fill-opacity:1;" d="M 93.75 0 L 93.75 93.75 L 0 93.75 L 0 0 Z M 281.25 187.5 L 281.25 93.75 L 187.5 93.75 L 187.5 187.5 Z M 187.5 0 L 93.75 0 L 187.5 93.75 Z M 93.75 93.75 L 93.75 187.5 L 187.5 93.75 Z M 281.25 0 L 281.25 93.75 L 375 0 Z M 375 187.5 L 375 93.75 L 281.25 93.75 Z M 0 187.5 L 0 281.25 L 93.75 281.25 L 93.75 187.5 Z M 187.5 375 L 281.25 375 L 281.25 281.25 L 187.5 281.25 Z M 93.75 187.5 L 187.5 281.25 L 187.5 187.5 Z M 93.75 375 L 187.5 281.25 L 93.75 281.25 Z M 281.25 281.25 L 375 187.5 L 281.25 187.5 Z M 375 281.25 L 281.25 281.25 L 375 375 Z M 375 281.25 "/></g></svg>